# xmcd
#
# Track frame offsets:
# 150
# 14793
# 37023
# 52345
# 65287
# 77540
# 96018
# 110209
# 135692
# 148004
# 171250
#
# Disc length: 2560 seconds
#
#
# Revision: 0
# Processed by: cddbd v1.4PL0 Copyright (c) Steve Scherf et al.
# Submitted via: FreeRIP 2.00 
#
DISCID=a309fe0b
DTITLE=The Arhoolies - New And Used Blues
DYEAR=1900
DGENRE=Blues
TTITLE0=Death Letter
TTITLE1=Going Down Slow
TTITLE2=Who Do You Love ?
TTITLE3=Kingdom's Empty Halls
TTITLE4=Stop Breaking down
TTITLE5=Rock Me
TTITLE6=Dust My Broom
TTITLE7=Needed Time
TTITLE8=Pony Blues
TTITLE9=Rooster
TTITLE10=You Gotta Move
EXTD=
EXTT0=
EXTT1=
EXTT2=
EXTT3=
EXTT4=
EXTT5=
EXTT6=
EXTT7=
EXTT8=
EXTT9=
EXTT10=
PLAYORDER=
